<svg version="1.0" xmlns="http://www.w3.org/2000/svg"
 width="500.000000pt" height="500.000000pt" viewBox="0 0 500.000000 500.000000"
 preserveAspectRatio="xMidYMid meet">

<g transform="translate(0.000000,500.000000) scale(0.100000,-0.100000)"
fill="#000000" stroke="none">
<path d="M500 4625 c0 -8 9 -15 19 -15 44 0 223 -55 332 -101 312 -134 438
-278 779 -894 46 -82 102 -179 125 -215 23 -36 68 -116 100 -178 170 -335 819
-1101 1085 -1282 82 -55 363 -190 397 -190 34 0 4 21 -89 64 -210 97 -286 145
-396 251 -57 54 -131 133 -164 174 -78 97 -217 309 -359 546 -62 105 -149 244
-192 310 -44 66 -102 165 -129 220 -59 117 -223 376 -351 555 -189 263 -377
477 -498 568 -106 79 -285 143 -509 181 -146 25 -150 25 -150 6z"/>
<path d="M4640 4409 c-52 -30 -75 -70 -124 -216 -38 -114 -53 -144 -119 -239
-132 -188 -233 -292 -392 -404 -199 -140 -302 -192 -520 -265 -280 -94 -384
-154 -527 -303 -91 -96 -143 -177 -187 -292 -43 -113 -45 -120 -26 -120 8 0
18 8 21 18 19 58 47 119 78 165 111 168 399 369 626 437 324 97 371 119 575
258 145 100 271 215 356 327 58 76 163 234 174 260 4 11 11 79 15 150 8 145
21 185 70 210 29 15 32 15 75 -15 81 -56 114 -121 151 -300 34 -164 38 -319
11 -418 -65 -242 -234 -472 -541 -740 -150 -130 -350 -316 -412 -382 -65 -69
-134 -176 -134 -206 0 -29 41 -58 69 -49 12 3 33 27 48 53 49 87 125 171 277
308 299 269 332 300 404 379 235 257 359 565 338 834 -9 100 -50 305 -77 375
-25 67 -65 122 -118 162 -51 39 -63 41 -111 13z"/>
<path d="M530 4384 c0 -4 28 -36 63 -73 75 -80 157 -176 157 -184 0 -3 -24
-28 -52 -56 l-53 -50 -3 -103 c-7 -270 4 -389 54 -578 115 -440 431 -964 772
-1283 112 -104 235 -193 486 -351 127 -80 191 -115 198 -108 6 6 -22 33 -89
82 -253 188 -474 410 -739 745 -312 394 -522 783 -584 1080 -30 145 -35 251
-15 310 12 36 15 66 10 107 -7 63 2 85 58 145 22 24 28 37 23 56 -3 14 -62 79
-133 146 -111 106 -153 137 -153 115z"/>
<path d="M3500 2294 c-78 -21 -152 -68 -234 -149 -81 -81 -162 -182 -152 -192
3 -4 51 40 105 98 128 136 196 174 311 174 67 0 83 -4 155 -40 67 -33 99 -58
195 -155 63 -64 126 -123 140 -132 42 -25 121 -48 169 -49 41 0 36 -3 -42 -19
-110 -23 -195 -63 -272 -126 -88 -73 -152 -115 -215 -140 -38 -16 -56 -29 -58
-43 -5 -34 24 -36 121 -7 115 35 148 52 224 119 113 100 208 148 338 171 55
10 70 16 69 29 -2 14 8 17 62 17 96 0 77 16 -28 24 -217 16 -304 61 -424 217
-79 103 -244 202 -354 213 -35 4 -75 0 -110 -10z"/>
<path d="M2070 1369 c-36 -27 -122 -78 -192 -113 -124 -63 -161 -75 -651 -231
-410 -129 -657 -306 -968 -692 -139 -171 -173 -232 -156 -276 10 -27 27 -21
117 44 96 69 204 123 335 169 87 30 125 50 95 50 -25 0 -300 -80 -364 -106
-34 -13 99 152 232 290 230 237 417 341 976 541 105 37 234 87 288 111 172 75
388 214 388 249 0 27 -34 14 -100 -36z"/>
<path d="M2897 1069 c-165 -87 -321 -124 -621 -149 -256 -21 -342 -37 -468
-90 -62 -26 -82 -40 -114 -83 -35 -46 -39 -56 -37 -106 2 -83 16 -113 51 -109
26 3 27 6 27 55 0 46 4 56 35 88 75 79 245 138 538 189 219 38 289 54 394 92
105 38 258 111 258 123 0 16 -20 13 -63 -10z"/>
<path d="M1063 393 c-13 -2 -23 -11 -23 -19 0 -11 15 -14 62 -14 81 0 170 -23
295 -76 119 -51 146 -54 169 -19 32 49 -9 87 -133 119 -58 15 -308 21 -370 9z"/>
</g>
</svg>
